<?xml version="1.0" standalone="no"?>
<!DOCTYPE svg PUBLIC "-//W3C//DTD SVG 20010904//EN"
 "http://www.w3.org/TR/2001/REC-SVG-20010904/DTD/svg10.dtd">
<svg version="1.0" xmlns="http://www.w3.org/2000/svg"
 width="500.000000pt" height="500.000000pt" viewBox="0 0 500.000000 500.000000"
 preserveAspectRatio="xMidYMid meet">
<metadata>
Created by potrace 1.14, written by Peter Selinger 2001-2017
</metadata>
<g transform="translate(0.000000,500.000000) scale(0.100000,-0.100000)"
fill="#000000" stroke="none">
<path d="M810 4346 c-290 -62 -521 -243 -654 -512 -195 -394 -176 -938 46
-1317 100 -171 315 -410 461 -512 l58 -40 -6 -65 c-10 -114 -63 -347 -140
-620 -41 -145 -73 -265 -72 -267 2 -1 122 22 269 52 449 92 714 122 978 110
432 -18 818 -92 1205 -233 61 -22 119 -43 130 -47 35 -12 -136 83 -252 140
-219 107 -449 188 -714 249 -205 47 -317 63 -544 77 -163 10 -215 9 -370 -5
-99 -9 -224 -24 -278 -32 -54 -9 -101 -14 -103 -11 -3 3 4 53 15 111 12 59 21
118 21 131 0 14 7 26 18 29 30 9 322 55 437 68 171 20 595 16 735 -6 368 -57
710 -178 1018 -360 50 -30 92 -51 92 -47 0 10 -136 106 -231 163 -337 204
-725 339 -1119 389 -178 23 -729 12 -897 -17 l-33 -6 0 116 c0 282 -63 675
-152 941 -37 113 -68 180 -48 104 30 -115 76 -706 56 -726 -4 -5 -38 25 -74
66 -270 300 -375 550 -375 896 -1 445 181 761 500 869 79 27 195 51 288 60
136 14 394 -55 610 -162 106 -53 162 -90 229 -152 56 -52 51 -34 -19 65 -138
195 -460 410 -730 486 -92 26 -267 33 -355 15z"/>
<path d="M3661 4039 c-63 -5 -176 -20 -250 -33 -293 -54 -448 -112 -925 -349
-562 -278 -752 -347 -930 -334 -178 13 -337 93 -541 275 -131 116 -138 114
-82 -23 62 -149 152 -269 270 -359 146 -110 267 -150 452 -149 231 0 486 80
965 303 375 174 530 234 734 286 272 69 604 72 801 8 98 -32 203 -93 270 -155
163 -153 243 -407 232 -734 -6 -163 -24 -251 -75 -374 -126 -299 -467 -552
-869 -645 l-63 -14 8 41 c4 23 7 98 7 167 -1 107 -4 134 -24 185 -54 135 -119
203 -239 248 -51 18 -78 21 -247 21 -196 1 -286 -7 -560 -50 -286 -44 -387
-54 -577 -54 -360 0 -633 78 -925 264 l-88 56 75 -71 c225 -213 561 -362 899
-399 138 -15 388 -13 647 6 126 10 333 18 459 18 286 1 290 0 348 -115 32 -62
42 -95 54 -190 33 -240 12 -772 -42 -1081 -2 -16 -1 -28 3 -28 10 0 92 337
132 545 17 88 33 170 36 182 3 17 13 23 52 28 26 4 93 16 150 27 460 86 866
380 1036 749 126 274 151 642 66 976 -101 391 -394 661 -812 747 -65 13 -297
38 -323 34 -5 0 -62 -5 -124 -9z"/>
</g>
</svg>
